<svg width="37" height="37" viewBox="0 0 37 37" fill="none" xmlns="http://www.w3.org/2000/svg">
<path d="M18.6906 31.2784V18.5M18.6906 18.5L14.5901 22.7594M18.6906 18.5L22.7912 22.7594M8.8494 29.1486C5.22596 29.1486 2.28857 26.1519 2.28857 22.4553C2.28857 19.4091 4.28303 16.8383 7.01233 16.0278C7.12831 15.9933 7.20919 15.885 7.20919 15.7618C7.20919 10.2168 11.6153 5.72168 17.0504 5.72168C22.4855 5.72168 26.8917 10.2168 26.8917 15.7618C26.8917 15.8681 26.9893 15.9469 27.091 15.9237C27.5547 15.8177 28.0369 15.7618 28.5319 15.7618C32.1553 15.7618 35.0927 18.7585 35.0927 22.4553C35.0927 26.1519 32.1553 29.1486 28.5319 29.1486" stroke="url(#paint0_linear_85_442)" stroke-width="3" stroke-linecap="round" stroke-linejoin="round"/>
<defs>
<linearGradient id="paint0_linear_85_442" x1="18.6906" y1="5.72168" x2="18.6906" y2="31.2784" gradientUnits="userSpaceOnUse">
<stop stop-color="#FFBF9D"/>
<stop offset="1" stop-color="#FF3D00"/>
</linearGradient>
</defs>
</svg>
