<svg width="138" height="19" viewBox="0 0 138 19" fill="none" xmlns="http://www.w3.org/2000/svg">
<path d="M104.059 6.45905C104.068 6.58678 104.068 6.71439 104.068 6.84324C104.068 10.7688 101.154 15.2962 95.8257 15.2962V15.294C94.2515 15.2962 92.7101 14.8339 91.3853 13.962C91.6141 13.9903 91.8441 14.0044 92.0747 14.005C93.3793 14.0061 94.6464 13.5573 95.6724 12.7308C95.0679 12.7191 94.4821 12.514 93.9969 12.144C93.5116 11.7741 93.1513 11.258 92.9661 10.6677C93.4004 10.7537 93.8478 10.7359 94.274 10.6164C92.9225 10.3364 91.9503 9.11872 91.9503 7.70449V7.66682C92.3531 7.897 92.8041 8.02453 93.265 8.03867C91.992 7.16622 91.5998 5.42958 92.3684 4.07191C93.0957 4.98969 94.0031 5.74031 95.0316 6.27502C96.0602 6.80973 97.1869 7.11657 98.3386 7.17561C98.2238 6.66865 98.2408 6.13967 98.3879 5.64156C98.535 5.14345 98.807 4.69367 99.1767 4.3372C100.343 3.21236 102.178 3.27006 103.275 4.46606C103.924 4.33468 104.546 4.09075 105.115 3.74474C104.899 4.43265 104.446 5.01658 103.841 5.38795C104.416 5.31851 104.976 5.16081 105.505 4.92016C105.116 5.51721 104.627 6.03834 104.059 6.45905Z" fill="#1D9BF0"/>
<path d="M50.4121 7.56952H49.6539V7.53046H41.1821V11.2957H46.5019C45.7258 13.4875 43.6403 15.0609 41.1821 15.0609C38.0631 15.0609 35.5343 12.5321 35.5343 9.41307C35.5343 6.29405 38.0631 3.76523 41.1821 3.76523C42.6218 3.76523 43.9317 4.30836 44.929 5.19555L47.5915 2.53306C45.9103 0.966252 43.6615 0 41.1821 0C35.9837 0 31.769 4.2147 31.769 9.41307C31.769 14.6114 35.9837 18.8261 41.1821 18.8261C46.3805 18.8261 50.5952 14.6114 50.5952 9.41307C50.5952 8.78193 50.5302 8.16584 50.4121 7.56952Z" fill="#FFC107"/>
<path d="M32.855 5.03176L35.9476 7.29984C36.7845 5.22802 38.8111 3.76523 41.1827 3.76523C42.6225 3.76523 43.9323 4.30836 44.9296 5.19555L47.5921 2.53306C45.9109 0.966252 43.6621 0 41.1827 0C37.5672 0 34.4317 2.04122 32.855 5.03176Z" fill="#FF3D00"/>
<path d="M41.1817 18.8262C43.6131 18.8262 45.8224 17.8957 47.4927 16.3826L44.5794 13.9173C43.6026 14.6602 42.409 15.062 41.1817 15.061C38.7334 15.061 36.6545 13.4998 35.8714 11.3212L32.8018 13.6862C34.3596 16.7346 37.5234 18.8262 41.1817 18.8262Z" fill="#4CAF50"/>
<path d="M50.4121 7.56958H49.6539V7.53052H41.1821V11.2957H46.5019C46.1307 12.3389 45.462 13.2505 44.5784 13.9178L44.5798 13.9168L47.4931 16.3821C47.287 16.5694 50.5952 14.1197 50.5952 9.41313C50.5952 8.78199 50.5303 8.1659 50.4121 7.56958Z" fill="#1976D2"/>
<path d="M80.4033 9.41307C80.4033 4.21441 76.1889 0 70.9902 0C65.7916 0 61.5771 4.21434 61.5771 9.41307C61.5771 14.1114 65.0194 18.0057 69.5194 18.7118V12.134H67.1294V9.41307H69.5194V7.33926C69.5194 4.9801 70.9248 3.67698 73.0749 3.67698C74.1048 3.67698 75.182 3.86083 75.182 3.86083V6.17733H73.9951C72.8256 6.17733 72.461 6.90295 72.461 7.64739V9.41307H75.0717L74.6543 12.134H72.461V18.7118C76.9611 18.0057 80.4033 14.1114 80.4033 9.41307Z" fill="#1877F2"/>
<path d="M74.6543 12.1341L75.0717 9.41309H72.461V7.64741C72.461 6.90289 72.8257 6.17735 73.9951 6.17735H75.182V3.86085C75.182 3.86085 74.1048 3.677 73.0749 3.677C70.9248 3.677 69.5194 4.98012 69.5194 7.33928V9.41309H67.1294V12.1341H69.5194V18.7118C70.006 18.7881 70.4977 18.8263 70.9902 18.8262C71.4827 18.8263 71.9745 18.7881 72.461 18.7118V12.1341H74.6543Z" fill="white"/>
<rect y="9.02087" width="24.7093" height="0.784423" fill="black"/>
<rect x="112.564" y="9.02087" width="24.7093" height="0.784423" fill="black"/>
</svg>
